<?xml version="1.0" standalone="no"?>
<!DOCTYPE svg PUBLIC "-//W3C//DTD SVG 20010904//EN"
 "http://www.w3.org/TR/2001/REC-SVG-20010904/DTD/svg10.dtd">
<svg version="1.0" xmlns="http://www.w3.org/2000/svg"
 width="310.000000pt" height="310.000000pt" viewBox="0 0 310.000000 310.000000"
 preserveAspectRatio="xMidYMid meet">
<metadata>
Created by potrace 1.14, written by Peter Selinger 2001-2017
</metadata>
<g transform="translate(0.000000,310.000000) scale(0.100000,-0.100000)"
fill="#000000" stroke="none">
<path d="M2587 2852 c-22 -24 -21 -31 3 -25 11 3 20 0 20 -6 0 -6 -6 -11 -14
-11 -8 0 -17 -6 -19 -12 -4 -10 -6 -10 -6 0 -1 6 -6 12 -12 12 -6 0 -9 -12 -7
-27 3 -27 5 -28 53 -25 28 2 54 8 60 13 5 5 17 9 27 9 10 0 18 6 18 14 0 16
-37 28 -46 15 -10 -17 -22 -9 -38 26 -9 19 -18 35 -20 35 -2 0 -10 -8 -19 -18z"/>
<path d="M2740 2760 c0 -5 5 -10 10 -10 6 0 10 5 10 10 0 6 -4 10 -10 10 -5 0
-10 -4 -10 -10z"/>
<path d="M2698 2733 c7 -3 16 -2 19 1 4 3 -2 6 -13 5 -11 0 -14 -3 -6 -6z"/>
<path d="M2810 2708 c-22 -18 -25 -18 -28 -4 -5 26 -22 18 -22 -10 0 -16 5
-24 12 -22 7 3 20 -5 30 -16 l17 -21 1 22 c0 31 17 38 32 13 17 -26 32 -26 25
1 -3 12 0 22 9 26 15 5 20 33 6 33 -4 0 -13 -5 -20 -12 -8 -8 -15 -8 -24 0
-10 7 -20 5 -38 -10z"/>
<path d="M2620 2676 c0 -18 6 -38 13 -44 11 -9 14 -2 16 33 1 35 -2 45 -14 45
-10 0 -15 -10 -15 -34z"/>
<path d="M2933 2666 c3 -22 1 -37 -6 -40 -7 -2 -2 -5 10 -5 26 -1 40 16 24 32
-6 6 -11 19 -11 29 0 10 -5 18 -11 18 -8 0 -10 -12 -6 -34z"/>
<path d="M2710 2683 c8 -3 18 -11 22 -17 5 -7 8 -4 8 7 0 11 -7 17 -22 16 -16
0 -18 -2 -8 -6z"/>
<path d="M2485 2650 c-3 -5 -2 -10 4 -10 5 0 13 5 16 10 3 6 2 10 -4 10 -5 0
-13 -4 -16 -10z"/>
<path d="M2715 2631 c-6 -11 9 -23 19 -14 9 9 7 23 -3 23 -6 0 -12 -4 -16 -9z"/>
<path d="M3011 2627 c-6 -6 -11 -14 -11 -18 0 -9 39 1 45 11 8 13 -22 19 -34
7z"/>
<path d="M2575 2620 c-3 -5 1 -10 9 -10 9 0 16 5 16 10 0 6 -4 10 -9 10 -6 0
-13 -4 -16 -10z"/>
<path d="M3053 2611 c-31 -15 -42 -34 -25 -45 15 -9 72 26 72 45 0 22 -4 22
-47 0z"/>
<path d="M2440 2599 c0 -5 5 -7 10 -4 6 3 10 8 10 11 0 2 -4 4 -10 4 -5 0 -10
-5 -10 -11z"/>
<path d="M2522 2584 c-2 -29 13 -25 21 6 3 12 0 20 -7 20 -6 0 -13 -11 -14
-26z"/>
<path d="M2836 2565 c-7 -18 -32 -20 -40 -2 -3 8 -10 6 -23 -9 -14 -15 -28
-20 -56 -18 -20 2 -37 -1 -37 -7 0 -5 26 -9 61 -7 49 2 63 -1 70 -15 13 -23
29 -22 29 3 0 21 33 29 45 10 9 -15 25 -12 25 5 0 24 38 17 56 -10 23 -34 34
-31 34 9 0 40 -14 53 -36 35 -13 -11 -18 -10 -26 5 -9 16 -11 16 -34 1 -22
-14 -25 -14 -30 0 -8 19 -30 19 -38 0z"/>
<path d="M2570 2555 c0 -11 -8 -13 -30 -8 -23 4 -30 2 -28 -7 2 -7 -8 -16 -22
-20 -16 -3 -26 -14 -28 -28 -3 -20 0 -22 25 -16 15 3 34 14 41 22 10 13 16 14
32 5 16 -11 19 -9 22 10 4 29 32 29 36 0 2 -15 10 -23 22 -23 22 0 39 22 22
28 -7 2 -10 13 -6 28 7 26 -12 34 -33 13 -8 -8 -13 -8 -17 0 -10 16 -36 13
-36 -4z"/>
<path d="M2393 2513 c-9 -13 -14 -15 -20 -6 -5 7 -8 -6 -8 -31 0 -39 2 -43 20
-36 13 5 19 16 18 29 -2 12 4 24 12 27 18 7 20 34 2 34 -6 0 -17 -8 -24 -17z"/>
<path d="M2936 2474 c-18 -18 -20 -31 -6 -36 6 -2 6 -9 0 -18 -8 -12 -13 -13
-30 -2 -17 10 -24 10 -44 -3 -13 -9 -26 -12 -28 -6 -5 14 -104 17 -121 3 -10
-9 -22 -10 -39 -3 -36 13 -56 -3 -56 -44 0 -38 13 -54 31 -36 6 6 19 11 30 11
11 0 17 5 14 13 -2 6 -11 11 -20 11 -9 -1 -13 4 -10 12 6 16 23 19 23 4 0 -5
12 -10 27 -10 21 0 24 -3 15 -12 -16 -16 -15 -28 3 -28 9 0 19 8 22 18 6 14 8
13 13 -7 9 -38 27 -37 23 1 -1 18 0 27 3 21 3 -7 17 -13 30 -13 15 0 24 -6 24
-15 0 -8 5 -15 11 -15 6 0 17 7 25 15 17 17 44 20 44 5 0 -5 5 -10 10 -10 6 0
10 11 10 25 0 28 20 35 21 8 0 -15 2 -15 8 2 7 18 9 17 24 -12 20 -37 21 -53
6 -53 -5 0 -7 5 -3 12 9 14 -53 3 -73 -13 -11 -10 -10 -14 4 -25 17 -13 17
-13 1 -14 -10 0 -18 4 -18 9 0 5 -8 12 -17 14 -17 4 -17 5 0 6 19 1 23 16 6
27 -6 3 -23 -6 -38 -20 -27 -26 -68 -39 -43 -14 16 16 15 28 -3 28 -8 0 -15
-6 -15 -14 0 -8 -6 -17 -12 -19 -10 -4 -10 -8 1 -15 11 -8 9 -14 -9 -32 -12
-12 -25 -19 -28 -15 -4 3 0 11 8 16 11 8 12 12 3 15 -7 3 -10 11 -7 18 3 9 -5
15 -23 19 -37 7 -41 1 -15 -22 26 -22 28 -31 7 -31 -9 0 -18 -7 -21 -15 -4 -8
-11 -15 -17 -15 -5 0 -3 8 5 18 13 15 13 19 -1 32 -9 8 -26 15 -36 16 -11 1
-37 5 -59 9 -31 6 -38 5 -34 -6 3 -8 14 -13 25 -11 11 1 26 -4 33 -13 8 -9 8
-15 2 -15 -6 0 -14 5 -17 10 -10 16 -23 12 -30 -10 -5 -16 -15 -20 -46 -20
-22 0 -39 5 -39 11 0 6 7 8 16 5 8 -3 27 -3 41 0 21 6 24 9 12 18 -40 32 -47
92 -11 90 13 0 24 7 28 18 3 10 10 18 15 18 5 0 9 9 9 20 0 11 -4 20 -10 20
-5 0 -10 9 -10 20 0 11 -5 20 -11 20 -5 0 -8 -4 -4 -10 3 -5 3 -21 -1 -35 -6
-26 -7 -26 -21 -5 -17 25 -35 26 -32 3 3 -37 -1 -53 -16 -53 -10 0 -15 11 -15
35 0 43 -16 46 -25 5 -9 -41 -65 -71 -65 -35 0 15 -10 19 -43 15 -26 -2 -56
-30 -50 -46 3 -9 -2 -14 -16 -14 -14 0 -21 -6 -21 -19 0 -10 -7 -21 -15 -25
-16 -6 -21 -36 -5 -36 5 0 27 18 49 40 22 22 43 40 46 40 4 0 5 -13 3 -30 -4
-23 1 -33 18 -45 21 -13 23 -13 29 5 5 15 11 18 23 11 23 -11 42 -3 42 18 0
10 11 23 25 29 22 10 25 9 31 -13 8 -30 -1 -44 -24 -38 -11 3 -33 -9 -58 -32
-33 -31 -44 -35 -69 -30 -51 11 -60 11 -60 -5 0 -8 -8 -18 -18 -22 -10 -4 -15
-13 -12 -19 10 -15 -15 -69 -31 -69 -8 0 -14 -10 -14 -24 0 -22 2 -23 43 -16
23 5 44 7 45 5 7 -7 -9 -44 -31 -71 -23 -30 -30 -74 -12 -74 5 0 4 -4 -4 -9
-8 -5 -15 -17 -16 -28 -1 -10 -7 -29 -12 -43 -22 -53 -23 -66 -8 -86 8 -10 15
-41 15 -67 0 -27 5 -57 11 -68 11 -22 -5 -54 -22 -43 -15 9 -10 -25 8 -54 17
-26 17 -26 0 -13 -21 17 -23 -2 -2 -19 14 -12 14 -15 -3 -34 -25 -29 -47 -75
-39 -82 9 -9 38 16 32 26 -3 5 -1 11 4 14 5 4 12 2 15 -2 7 -12 86 -12 86 -1
0 5 14 9 31 9 19 0 28 4 23 11 -3 6 -17 8 -30 5 -14 -4 -34 -2 -45 5 -16 8
-25 7 -40 -7 -32 -29 -22 2 18 53 20 27 47 72 59 101 16 34 33 56 48 62 13 5
32 22 41 38 19 31 55 59 55 42 0 -14 23 -12 56 4 17 10 42 13 68 9 71 -9 65
-23 -10 -23 -71 0 -114 -17 -114 -44 0 -7 24 -25 54 -39 30 -15 57 -36 61 -47
4 -14 16 -20 38 -21 18 -1 24 -3 14 -6 -18 -5 -18 -5 0 -19 21 -16 81 -18 117
-4 18 6 26 17 26 34 0 18 7 25 31 30 17 3 42 3 55 0 18 -5 24 -2 24 10 0 9 5
25 12 36 10 15 9 23 -6 39 -11 12 -25 21 -31 21 -7 0 -23 8 -36 19 -39 29
-149 63 -209 64 -30 0 -75 -7 -100 -16 l-45 -16 45 39 c25 22 63 49 85 60 22
10 52 33 67 50 14 16 36 30 47 30 12 0 21 4 21 9 0 4 18 20 40 35 54 36 108
35 163 -3 41 -28 121 -71 132 -71 18 0 -1 33 -32 56 -54 40 -59 44 -46 44 5 0
27 -11 47 -25 l37 -25 -1 200 c-1 142 -5 200 -13 204 -9 3 -9 5 1 5 6 1 12 11
12 23 0 16 -3 19 -11 11 -6 -6 -11 -23 -11 -37 0 -19 -6 -26 -20 -26 -16 0
-19 5 -15 22 4 12 1 28 -4 35 -14 16 -2 35 19 29 24 -8 43 7 38 30 -11 49 -19
64 -38 64 -15 0 -18 -4 -13 -17 18 -45 18 -55 -1 -51 -10 2 -20 9 -20 16 -1 6
-2 17 -3 22 -2 16 -21 12 -21 -5 0 -8 -6 -15 -12 -15 -8 -1 -6 -6 5 -14 16
-13 16 -14 1 -20 -23 -9 -26 -3 -28 44 -1 44 -6 48 -30 24z m-156 -74 c0 -5
-6 -10 -14 -10 -8 0 -18 5 -21 10 -3 6 3 10 14 10 12 0 21 -4 21 -10z m90 -36
c0 -8 -5 -12 -10 -9 -6 4 -8 11 -5 16 9 14 15 11 15 -7z m-528 -26 c-6 -6 -15
-8 -19 -4 -4 4 -1 11 7 16 19 12 27 3 12 -12z m651 -67 c5 -20 -10 -32 -41
-30 -11 0 -8 4 8 10 24 10 24 11 6 25 -19 14 -19 14 1 14 12 0 23 -8 26 -19z
m47 9 c0 -5 -4 -10 -10 -10 -5 0 -10 5 -10 10 0 6 5 10 10 10 6 0 10 -4 10
-10z m-175 -20 c-3 -5 -11 -10 -16 -10 -6 0 -7 5 -4 10 3 6 11 10 16 10 6 0 7
-4 4 -10z m205 -30 c0 -13 -28 -25 -38 -16 -3 4 0 11 8 16 20 13 30 12 30 0z
m-210 -10 c0 -5 -7 -10 -15 -10 -8 0 -15 5 -15 10 0 6 7 10 15 10 8 0 15 -4
15 -10z m-380 -30 c0 -5 -5 -10 -11 -10 -5 0 -7 5 -4 10 3 6 8 10 11 10 2 0 4
-4 4 -10z m549 -52 l-2 -63 -7 55 c-6 51 -5 70 6 70 2 0 3 -28 3 -62z m-234
30 c4 -13 8 -32 9 -43 2 -11 6 -30 10 -42 6 -17 3 -23 -8 -23 -9 0 -17 8 -17
18 -3 39 -9 88 -14 100 -2 6 -1 12 4 12 5 0 12 -10 16 -22z m54 -43 c0 -26 -2
-27 -9 -10 -5 11 -9 34 -9 50 0 26 2 27 9 10 5 -11 9 -33 9 -50z m131 14 c0
-31 -6 -35 -30 -19 -12 7 -12 10 -1 10 8 0 11 6 7 16 -3 9 -3 20 0 25 10 17
24 -2 24 -32z m-324 -15 c20 -47 18 -82 -3 -80 -10 0 -20 -9 -24 -24 -6 -23
-7 -23 -8 8 -1 21 -6 32 -16 32 -9 0 -12 6 -9 15 4 8 17 15 30 15 17 0 24 6
24 20 0 11 -4 20 -9 20 -5 0 -11 9 -14 20 -8 31 13 12 29 -26z m-321 26 c3 -6
-1 -7 -9 -4 -18 7 -21 14 -7 14 6 0 13 -4 16 -10z m275 -12 c0 -16 -3 -16 -20
-6 -11 7 -20 15 -20 18 0 3 9 6 20 6 13 0 20 -7 20 -18z m-93 -32 c-7 -17 12
-96 23 -96 4 0 10 -9 13 -20 3 -11 1 -20 -4 -20 -5 0 -9 6 -9 13 -1 22 -29 50
-52 52 -13 1 -22 5 -20 8 1 4 2 14 2 22 0 8 7 15 16 15 10 0 14 6 11 14 -6 15
1 26 16 26 5 0 7 -6 4 -14z m-160 -63 c21 -16 8 -31 -14 -17 -17 11 -27 60
-15 78 4 6 8 -2 10 -19 2 -16 11 -36 19 -42z m623 47 c0 -5 -4 -10 -10 -10 -5
0 -10 5 -10 10 0 6 5 10 10 10 6 0 10 -4 10 -10z m-125 -9 c3 -5 1 -12 -5 -16
-5 -3 -10 1 -10 9 0 18 6 21 15 7z m-112 -8 c-7 -2 -19 -2 -25 0 -7 3 -2 5 12
5 14 0 19 -2 13 -5z m22 -23 c-3 -5 -11 -10 -16 -10 -6 0 -7 5 -4 10 3 6 11
10 16 10 6 0 7 -4 4 -10z m145 -20 c0 -5 -5 -10 -11 -10 -5 0 -7 5 -4 10 3 6
8 10 11 10 2 0 4 -4 4 -10z m-70 -4 c0 -2 -7 -7 -16 -10 -8 -3 -12 -2 -9 4 6
10 25 14 25 6z m-340 -16 c0 -5 -4 -10 -10 -10 -5 0 -10 5 -10 10 0 6 5 10 10
10 6 0 10 -4 10 -10z m230 0 c0 -5 -5 -10 -11 -10 -5 0 -7 5 -4 10 3 6 8 10
11 10 2 0 4 -4 4 -10z m-357 -183 c-6 -11 -32 23 -32 43 -1 10 6 7 18 -10 11
-13 17 -28 14 -33z m-33 -23 c0 -21 -17 -17 -23 5 -3 14 -1 18 9 14 8 -3 14
-11 14 -19z m-45 -54 l7 -25 -21 27 c-24 30 -30 62 -7 38 8 -8 17 -26 21 -40z
m-31 -2 c3 -13 1 -27 -4 -32 -7 -7 -10 -4 -10 6 0 9 -3 23 -6 32 -3 9 -2 16 4
16 5 0 12 -10 16 -22z m26 -69 c0 -11 -4 -17 -10 -14 -5 3 -10 13 -10 21 0 8
5 14 10 14 6 0 10 -9 10 -21z m464 -65 c9 -3 16 -14 16 -24 0 -20 -22 -28 -58
-22 l-23 5 22 23 c26 27 22 26 43 18z"/>
<path d="M2780 2460 c0 -5 5 -10 10 -10 6 0 10 5 10 10 0 6 -4 10 -10 10 -5 0
-10 -4 -10 -10z"/>
<path d="M2417 2454 c-8 -8 1 -24 14 -24 5 0 9 7 9 15 0 15 -12 20 -23 9z"/>
<path d="M2855 2450 c-3 -5 3 -10 14 -10 12 0 21 5 21 10 0 6 -6 10 -14 10 -8
0 -18 -4 -21 -10z"/>
<path d="M2400 2386 c0 -2 7 -6 15 -10 8 -3 15 -1 15 4 0 6 -7 10 -15 10 -8 0
-15 -2 -15 -4z"/>
<path d="M2580 2300 c0 -5 4 -10 9 -10 6 0 13 5 16 10 3 6 -1 10 -9 10 -9 0
-16 -4 -16 -10z"/>
<path d="M2650 2295 c-7 -8 -8 -15 -2 -15 5 0 15 7 22 15 7 8 8 15 2 15 -5 0
-15 -7 -22 -15z"/>
<path d="M2295 2220 c-3 -5 1 -10 9 -10 9 0 16 5 16 10 0 6 -4 10 -9 10 -6 0
-13 -4 -16 -10z"/>
<path d="M2828 1943 c7 -3 16 -2 19 1 4 3 -2 6 -13 5 -11 0 -14 -3 -6 -6z"/>
<path d="M2940 1916 c0 -2 31 -27 69 -55 64 -48 91 -61 91 -43 -1 19 -160 117
-160 98z"/>
<path d="M2161 1836 c-15 -85 -15 -91 4 -76 7 6 17 33 21 58 3 26 11 52 15 58
6 8 3 13 -10 17 -17 4 -21 -3 -30 -57z"/>
<path d="M2830 1866 c0 -3 37 -23 83 -45 67 -33 76 -36 52 -15 -50 42 -135 80
-135 60z"/>
<path d="M3016 1755 c4 -8 11 -15 16 -15 6 0 5 6 -2 15 -7 8 -14 15 -16 15 -2
0 -1 -7 2 -15z"/>
<path d="M3040 1711 c13 -25 13 -31 -1 -31 -19 0 -70 -41 -63 -51 3 -5 9 -59
14 -119 4 -61 13 -117 20 -125 12 -15 71 -21 83 -9 3 3 -4 24 -15 46 -12 22
-23 62 -26 89 -4 47 -4 49 22 49 26 0 26 1 26 69 0 65 -1 69 -25 75 -14 4 -25
11 -25 16 0 6 -5 10 -10 10 -7 0 -7 -6 0 -19z"/>
<path d="M2415 1479 c-10 -15 1 -23 20 -15 9 3 13 10 10 16 -8 13 -22 13 -30
-1z"/>
<path d="M2401 1417 c2 -1 12 -9 22 -16 14 -12 17 -11 17 3 0 10 -8 16 -22 16
-12 0 -19 -1 -17 -3z"/>
<path d="M2587 1403 c-10 -10 -8 -91 2 -97 5 -3 12 -17 15 -31 4 -14 22 -58
40 -98 19 -40 37 -89 41 -110 4 -20 11 -37 16 -37 5 0 6 -7 3 -15 -4 -8 -2
-15 2 -15 26 0 33 -66 34 -340 0 -157 1 -296 2 -310 0 -14 -3 -98 -7 -187 l-8
-163 186 0 187 0 0 51 c0 39 -3 50 -13 46 -17 -6 -30 2 -45 28 -11 19 -11 19
-12 -2 0 -17 -6 -23 -22 -23 -43 1 -77 47 -48 65 6 3 10 -1 10 -9 0 -9 7 -16
15 -16 18 0 20 16 3 23 -9 3 -6 7 6 13 13 5 21 3 24 -4 2 -7 15 -9 34 -5 24 5
29 3 23 -7 -5 -8 -3 -11 6 -8 12 4 14 72 17 391 2 340 0 387 -13 387 -8 0 -15
5 -15 10 0 6 7 10 15 10 11 0 15 12 15 45 0 42 -1 44 -34 51 -19 3 -39 3 -45
-1 -6 -3 -11 1 -11 9 0 14 11 19 40 18 3 0 15 -3 28 -7 18 -5 22 -3 22 16 0
20 -4 21 -50 17 -52 -5 -61 1 -35 22 12 10 24 11 50 2 32 -9 35 -8 35 10 0 16
-5 19 -25 16 -33 -7 -34 19 -1 28 24 6 25 9 23 90 -1 77 -7 98 -21 76 -3 -5
-19 -7 -37 -4 -21 3 -30 1 -25 -6 3 -5 16 -8 27 -5 16 4 20 2 17 -8 -7 -21
-88 -25 -88 -5 0 9 8 16 18 17 11 0 12 2 4 6 -21 8 -42 -17 -36 -45 2 -15 0
-34 -5 -42 -9 -13 -14 -13 -32 -2 -11 7 -24 11 -27 7 -4 -3 0 -10 7 -15 8 -4
11 -15 8 -24 -4 -10 -1 -19 8 -22 8 -4 15 -14 15 -24 0 -13 5 -17 20 -13 11 3
20 0 20 -6 0 -10 -7 -12 -52 -15 -35 -2 -12 -21 25 -20 36 0 47 -8 27 -21 -6
-4 -8 -11 -4 -16 3 -5 0 -16 -6 -24 -7 -8 -11 -15 -9 -16 54 -11 93 -27 97
-38 4 -11 0 -12 -14 -6 -24 10 -104 17 -104 8 0 -3 8 -12 18 -19 18 -14 18
-15 -40 -18 -30 -2 -24 -19 9 -28 45 -12 56 -33 12 -22 -51 11 -72 10 -76 -3
-3 -7 2 -13 9 -13 19 0 68 -23 68 -32 0 -5 -7 -8 -15 -8 -17 0 -20 -16 -5 -25
8 -5 8 -11 1 -19 -7 -9 -7 -16 1 -24 6 -6 9 -15 5 -19 -4 -4 -12 -2 -18 4 -12
12 -39 6 -39 -8 0 -5 9 -9 20 -9 11 0 20 -4 20 -10 0 -5 7 -10 15 -10 8 0 15
-4 15 -10 0 -5 -4 -10 -9 -10 -6 0 -13 5 -16 10 -8 14 -35 13 -35 -1 0 -7 8
-18 18 -26 12 -10 14 -16 5 -19 -18 -8 -16 -24 2 -24 18 0 20 -16 3 -24 -9 -3
-8 -9 5 -20 18 -14 18 -15 -1 -25 -10 -5 -29 -7 -41 -4 -18 5 -21 11 -16 32 4
18 3 22 -4 12 -7 -12 -15 -12 -33 -4 -22 10 -22 11 -3 19 24 10 55 36 55 46 0
13 -17 9 -33 -7 -22 -22 -28 -6 -6 18 23 25 26 45 4 27 -18 -15 -28 -8 -31 23
-2 32 4 39 27 27 13 -7 19 -7 19 0 0 5 -6 10 -14 10 -16 0 -29 27 -16 35 4 3
10 -1 13 -7 2 -7 8 -10 13 -5 4 4 -2 14 -14 23 -12 8 -22 22 -22 30 0 17 16
19 23 2 4 -10 8 -9 16 2 8 12 6 16 -12 20 -15 4 -18 8 -9 14 6 4 12 16 12 26
0 13 5 17 15 14 22 -9 19 23 -4 38 -15 9 -17 17 -10 36 10 26 5 42 -14 42 -11
0 -57 58 -57 72 0 3 16 9 36 13 41 7 98 55 75 63 -8 3 -20 -3 -26 -12 -7 -9
-17 -16 -23 -16 -6 0 -12 -6 -15 -12 -7 -21 -17 -4 -10 20 3 13 13 22 25 22
26 0 18 24 -10 28 -15 2 -22 -2 -22 -12 0 -20 -2 -20 -45 4 -20 11 -41 20 -47
20 -7 0 -29 12 -50 26 -41 29 -51 66 -22 82 14 8 14 12 3 30 -14 22 -30 28
-42 15z m432 -150 c10 -17 10 -17 11 0 0 10 8 17 20 17 25 0 26 -18 3 -27 -10
-4 -21 -11 -25 -17 -5 -7 -8 -7 -8 2 0 6 -9 12 -20 12 -11 0 -20 7 -20 15 0
21 27 19 39 -2z m53 -48 c0 -5 -5 -11 -11 -13 -6 -2 -11 4 -11 13 0 9 5 15 11
13 6 -2 11 -8 11 -13z m-82 -5 c-19 -5 -41 -4 -50 0 -10 6 1 9 35 9 48 -1 49
-1 15 -9z m-222 -26 c-11 -11 -23 -14 -35 -9 -16 7 -15 9 7 15 40 12 45 11 28
-6z m251 -25 c-16 -10 -23 -4 -14 10 3 6 11 8 17 5 6 -4 5 -9 -3 -15z m71
-149 c0 -5 -7 -10 -16 -10 -8 0 -12 5 -9 10 3 6 10 10 16 10 5 0 9 -4 9 -10z
m-80 -40 c0 -5 -6 -10 -14 -10 -8 0 -18 5 -21 10 -3 6 3 10 14 10 12 0 21 -4
21 -10z m40 -10 c0 -5 -7 -10 -16 -10 -8 0 -12 5 -9 10 3 6 10 10 16 10 5 0 9
-4 9 -10z m-20 -50 c13 -9 13 -10 0 -10 -8 0 -22 5 -30 10 -13 9 -13 10 0 10
8 0 22 -5 30 -10z m-83 -216 c-3 -3 -12 -4 -19 -1 -8 3 -5 6 6 6 11 1 17 -2
13 -5z m43 -64 c0 -5 -4 -10 -10 -10 -5 0 -10 5 -10 10 0 6 5 10 10 10 6 0 10
-4 10 -10z m-40 -35 c-7 -9 -15 -13 -17 -11 -7 7 7 26 19 26 6 0 6 -6 -2 -15z
m-50 -103 c0 -4 -8 -12 -18 -18 -13 -8 -20 -8 -29 2 -10 10 -9 14 5 17 28 8
42 7 42 -1z m40 -53 c0 -11 -42 -29 -52 -22 -5 2 -8 10 -8 16 0 7 4 6 10 -3 8
-13 11 -11 16 7 6 21 34 22 34 2z m50 -13 c-6 -8 -18 -12 -26 -9 -19 7 -7 23
18 23 17 0 18 -3 8 -14z m-41 -40 c-2 -2 -15 -7 -29 -10 l-25 -7 25 20 c14 11
27 15 29 10 1 -6 1 -12 0 -13z m26 -16 c-3 -5 -11 -10 -16 -10 -6 0 -7 5 -4
10 3 6 11 10 16 10 6 0 7 -4 4 -10z m75 4 c0 -8 -32 -33 -42 -34 -16 0 -7 29
10 33 27 7 32 7 32 1z m-60 -38 c0 -3 -4 -8 -10 -11 -5 -3 -10 -1 -10 4 0 6 5
11 10 11 6 0 10 -2 10 -4z m30 -36 c-19 -13 -30 -13 -30 0 0 6 10 10 23 10 18
0 19 -2 7 -10z m-120 -71 c0 -6 -4 -7 -10 -4 -5 3 -10 11 -10 16 0 6 5 7 10 4
6 -3 10 -11 10 -16z m50 1 c0 -5 -4 -10 -10 -10 -5 0 -10 5 -10 10 0 6 5 10
10 10 6 0 10 -4 10 -10z m-15 -30 c3 -5 -1 -10 -9 -10 -9 0 -16 5 -16 10 0 6
4 10 9 10 6 0 13 -4 16 -10z"/>
<path d="M2072 1330 c0 -19 2 -27 5 -17 2 9 2 25 0 35 -3 9 -5 1 -5 -18z"/>
<path d="M2863 1346 c-26 -12 -30 -26 -9 -26 13 0 43 28 35 33 -2 2 -14 -2
-26 -7z"/>
<path d="M2900 1330 c-8 -5 -12 -11 -9 -14 2 -3 11 -1 19 4 8 5 12 11 9 14 -2
3 -11 1 -19 -4z"/>
<path d="M2647 1323 c-8 -7 11 -33 24 -33 5 0 9 5 9 10 0 6 -7 10 -16 10 -8 0
-12 5 -9 10 7 11 2 13 -8 3z"/>
<path d="M2780 1275 c0 -8 -4 -15 -10 -15 -5 0 -10 -4 -10 -10 0 -15 19 -12
36 4 18 19 18 36 -1 36 -8 0 -15 -7 -15 -15z"/>
<path d="M2842 1270 c-14 -24 -8 -40 15 -40 12 0 13 3 4 14 -9 11 -8 15 4 20
9 3 13 10 10 16 -9 15 -19 12 -33 -10z"/>
<path d="M2910 1280 c0 -5 7 -10 15 -10 8 0 15 5 15 10 0 6 -7 10 -15 10 -8 0
-15 -4 -15 -10z"/>
<path d="M2123 1203 c-17 -6 -16 -42 2 -73 8 -14 14 -28 15 -31 0 -10 -54 3
-79 20 -24 15 -24 15 -18 -9 20 -70 20 -76 -7 -88 -14 -6 -32 -28 -41 -49 -12
-29 -18 -34 -25 -23 -7 12 -12 12 -22 2 -6 -6 -16 -12 -20 -12 -14 0 -8 28 7
34 16 6 21 46 6 46 -4 0 -19 -10 -33 -23 -20 -18 -33 -22 -63 -19 -29 3 -36 1
-33 -9 3 -8 14 -15 26 -17 12 -2 22 -10 22 -18 0 -8 7 -17 15 -20 22 -9 18
-32 -7 -40 -13 -5 -26 -7 -29 -6 -3 0 -1 -17 5 -38 12 -45 4 -60 -19 -36 -21
21 -24 20 -35 -9 -6 -15 -17 -25 -30 -25 -11 0 -20 -4 -20 -8 0 -4 -12 -9 -27
-10 -93 -8 -228 -89 -267 -160 -66 -122 -82 -243 -40 -309 8 -12 11 -28 9 -36
-3 -7 10 -55 30 -106 20 -51 34 -96 31 -99 -3 -3 -1 -11 6 -19 9 -11 92 -14
475 -13 l465 1 -7 26 c-6 24 -5 25 12 12 10 -8 24 -20 31 -27 18 -16 95 -16
90 1 -3 6 -14 13 -26 15 -12 2 -22 9 -22 16 0 6 -29 38 -64 69 -78 70 -93 105
-71 166 8 24 12 47 9 53 -3 5 0 16 7 24 7 8 16 36 21 62 10 61 15 85 18 97 1
6 1 12 0 15 -10 26 -4 48 20 82 35 48 48 131 31 189 -7 21 -16 39 -21 39 -6 0
-10 15 -10 34 0 33 -17 57 -69 99 -13 10 -19 23 -15 30 5 8 2 7 -9 -2 -14 -11
-20 -11 -41 3 -14 8 -28 25 -31 37 -4 12 -26 40 -49 63 -23 22 -53 55 -66 73
-14 17 -31 29 -37 26z m-120 -438 c49 -14 60 -22 69 -46 5 -16 15 -29 21 -29
8 0 8 -3 0 -11 -12 -12 -14 -11 -127 64 -57 38 -70 52 -38 43 9 -3 43 -12 75
-21z m269 -7 c-7 -7 -12 -8 -12 -2 0 14 12 26 19 19 2 -3 -1 -11 -7 -17z m40
-32 c-2 -12 7 -21 27 -29 34 -13 43 -28 11 -20 -11 3 -20 0 -20 -6 0 -6 6 -11
14 -11 8 0 16 -7 20 -15 3 -8 0 -15 -7 -15 -7 0 -17 -11 -24 -25 -9 -20 -8
-27 4 -33 8 -5 13 -18 11 -28 -4 -24 -33 -25 -32 -1 2 19 -4 21 -26 7 -12 -8
-13 -11 -1 -19 9 -6 10 -11 2 -15 -10 -7 -13 -3 -15 27 -1 6 -5 15 -9 18 -5 4
-3 16 4 27 11 17 11 24 1 34 -6 6 -12 20 -12 30 0 10 -5 18 -11 18 -6 0 -9 10
-7 23 2 14 9 21 19 19 10 -1 19 6 22 19 7 25 33 20 29 -5z m-71 -73 c7 -16 15
-31 17 -35 2 -5 0 -8 -6 -8 -7 0 -16 14 -40 63 -2 4 0 7 6 7 5 0 15 -12 23
-27z m-143 -61 c2 -7 -2 -10 -12 -6 -9 3 -16 11 -16 16 0 13 23 5 28 -10z m98
-104 c8 -16 13 -32 10 -35 -2 -3 -14 14 -24 36 -23 47 -10 46 14 -1z m118 6
c18 -7 22 -39 6 -49 -5 -3 -10 2 -10 12 0 11 -5 24 -12 31 -13 13 -8 15 16 6z
m-94 -324 c0 -5 -4 -10 -10 -10 -5 0 -10 5 -10 10 0 6 5 10 10 10 6 0 10 -4
10 -10z m175 -101 c12 -19 -5 -23 -22 -6 -16 16 -16 17 -1 17 9 0 20 -5 23
-11z m95 -34 c0 -8 -4 -15 -10 -15 -5 0 -10 7 -10 15 0 8 5 15 10 15 6 0 10
-7 10 -15z"/>
<path d="M2310 634 c0 -8 5 -12 10 -9 6 4 8 11 5 16 -9 14 -15 11 -15 -7z"/>
<path d="M2876 1165 c-3 -8 -2 -15 3 -15 5 0 14 7 21 15 10 12 10 15 -3 15 -8
0 -17 -7 -21 -15z"/>
<path d="M2795 1120 c3 -5 10 -10 16 -10 5 0 9 5 9 10 0 6 -7 10 -16 10 -8 0
-12 -4 -9 -10z"/>
<path d="M2810 1090 c0 -5 7 -10 16 -10 8 0 12 5 9 10 -3 6 -10 10 -16 10 -5
0 -9 -4 -9 -10z"/>
<path d="M2860 1090 c0 -5 7 -10 15 -10 8 0 15 5 15 10 0 6 -7 10 -15 10 -8 0
-15 -4 -15 -10z"/>
<path d="M2905 1090 c-3 -5 3 -10 14 -10 12 0 21 5 21 10 0 6 -6 10 -14 10 -8
0 -18 -4 -21 -10z"/>
<path d="M2910 1050 c0 -5 7 -10 15 -10 8 0 15 5 15 10 0 6 -7 10 -15 10 -8 0
-15 -4 -15 -10z"/>
<path d="M2880 1011 c0 -5 9 -11 21 -14 16 -4 18 -3 8 9 -13 16 -29 19 -29 5z"/>
<path d="M2860 866 c0 -9 7 -16 16 -16 17 0 14 22 -4 28 -7 2 -12 -3 -12 -12z"/>
<path d="M2860 820 c0 -6 7 -10 15 -10 8 0 15 2 15 4 0 2 -7 6 -15 10 -8 3
-15 1 -15 -4z"/>
<path d="M3083 133 c-18 -7 -16 -23 2 -23 8 0 15 7 15 15 0 8 -1 15 -2 14 -2
0 -9 -3 -15 -6z"/>
</g>
</svg>
